#N canvas 359 218 659 509 10;
#X obj 268 126 adc~;
#X obj 266 295 netsend;
#X floatatom 177 243 5 0 0 0 - - -;
#X floatatom 266 348 5 0 0 0 - - -;
#X msg 420 235 disconnect;
#X obj 82 190 dac~;
#X msg 267 230 send \$1;
#X msg 426 116 send Hi There !;
#X obj 260 40 loadbang;
#X msg 420 176 connect localhost 31100 tcp;
#X obj 272 174 env~ 16384;
#X obj 252 69 delay 1000;
#X msg 41 131 \; pd dsp 1;
#X connect 0 0 5 0;
#X connect 0 0 5 1;
#X connect 0 0 10 0;
#X connect 1 0 3 0;
#X connect 4 0 1 0;
#X connect 6 0 1 0;
#X connect 7 0 1 0;
#X connect 8 0 11 0;
#X connect 9 0 1 0;
#X connect 10 0 6 0;
#X connect 10 0 2 0;
#X connect 11 0 9 0;
#X connect 11 0 12 0;
